Coordinates
version=1
nRows=19
nColumns=63
inDegrees=yes

Units are S.I. units (second, meters, Newtons, ...)
If the header above contains a line with 'inDegrees', this indicates whether rotational values are in degrees (yes) or radians (no).

endheader
time	pelvis_tilt	pelvis_list	pelvis_rotation	pelvis_tx	pelvis_ty	pelvis_tz	hip_flexion_r	hip_adduction_r	hip_rotation_r	knee_angle_r	knee_angle_r_beta	ankle_angle_r	subtalar_angle_r	mtp_angle_r	hip_flexion_l	hip_adduction_l	hip_rotation_l	knee_angle_l	knee_angle_l_beta	ankle_angle_l	subtalar_angle_l	mtp_angle_l	L5_S1_Flex_Ext	L5_S1_Lat_Bending	L5_S1_axial_rotation	L4_L5_Flex_Ext	L4_L5_Lat_Bending	L4_L5_axial_rotation	L3_L4_Flex_Ext	L3_L4_Lat_Bending	L3_L4_axial_rotation	L2_L3_Flex_Ext	L2_L3_Lat_Bending	L2_L3_axial_rotation	L1_L2_Flex_Ext	L1_L2_Lat_Bending	L1_L2_axial_rotation	L1_T12_Flex_Ext	L1_T12_Lat_Bending	L1_T12_axial_rotation	Abs_r3	Abs_r2	Abs_r1	Abs_t1	Abs_t2	neck_flexion	neck_bending	neck_rotation	arm_flex_r	arm_add_r	arm_rot_r	elbow_flex_r	pro_sup_r	wrist_flex_r	wrist_dev_r	arm_flex_l	arm_add_l	arm_rot_l	elbow_flex_l	pro_sup_l	wrist_flex_l	wrist_dev_l
6.160000	-6.965477	-8.214467	89.227153	0.213839	0.977870	0.639930	1.710056	-1.764220	-5.043304	3.816668	0.066613	24.855052	3.033226	0.000000	3.831680	0.960567	-7.323739	8.123463	0.141781	29.282832	14.407110	0.000000	-0.420958	-0.305444	-0.427224	-0.781761	-0.406240	-0.453926	-0.691592	-0.742656	-0.453926	-0.481113	-0.742656	-0.373821	-0.390902	-0.622861	-0.347120	-0.240535	-0.473132	-0.320418	-3.006860	-3.455240	-2.376092	0.000000	0.000000	22.578391	0.415982	4.173052	6.755294	-12.299431	104.100310	10.678382	7.532293	-1.278445	-5.821158	9.861257	-13.530615	132.242983	8.349618	4.980558	-2.136120	-8.451706
6.180000	-6.888492	-8.470721	89.386742	0.212846	0.977077	0.641034	2.242866	-1.781353	-5.570528	4.382441	0.076488	25.187494	3.358289	0.000000	4.317972	0.923114	-7.048828	8.474614	0.147910	29.468893	14.197580	0.000000	-0.434325	-0.279005	-0.434959	-0.806584	-0.371076	-0.462144	-0.713552	-0.678372	-0.462144	-0.496390	-0.678372	-0.380589	-0.403314	-0.568946	-0.353404	-0.248173	-0.432178	-0.326219	-3.102338	-3.156156	-2.419111	0.000000	0.000000	22.783559	0.478177	4.665504	6.869891	-12.307328	105.449235	10.487610	7.310193	-1.699738	-6.719507	10.409958	-13.366855	131.777997	8.733919	5.011888	-2.106638	-8.241980
6.200000	-6.779043	-8.749766	89.526221	0.211760	0.976227	0.642309	2.832856	-1.772198	-6.132170	4.981126	0.086937	25.546329	3.757771	0.000000	4.855925	0.855866	-6.798089	8.876223	0.154919	29.677079	13.966519	0.000000	-0.450762	-0.245681	-0.439182	-0.837111	-0.326756	-0.466631	-0.740558	-0.597350	-0.466631	-0.515176	-0.597350	-0.384284	-0.418578	-0.500994	-0.356835	-0.257566	-0.380561	-0.329386	-3.219751	-2.779198	-2.442598	0.000000	0.000000	23.022419	0.413390	5.173017	6.977673	-12.372509	106.471412	10.382044	7.229717	-2.216183	-7.606834	11.005109	-13.150376	131.086246	9.168981	5.271855	-2.171193	-7.963074
6.220000	-6.664260	-9.048182	89.618022	0.210671	0.975344	0.643712	3.477284	-1.767776	-6.697407	5.615415	0.098007	25.922432	4.227328	0.000000	5.422124	0.783912	-6.616347	9.290011	0.162141	29.879836	13.743471	0.000000	-0.468884	-0.209787	-0.434713	-0.870764	-0.279017	-0.461883	-0.770329	-0.510076	-0.461883	-0.535887	-0.510076	-0.380374	-0.435405	-0.427798	-0.353205	-0.267920	-0.324960	-0.326035	-3.349189	-2.373154	-2.417745	0.000000	0.000000	23.286634	0.237355	5.677557	7.118147	-12.437620	107.654479	10.264471	6.943037	-2.752358	-8.492191	11.630739	-12.862579	130.948536	9.481362	5.403111	-2.143737	-7.569980
6.240000	-6.551453	-9.342356	89.667736	0.209592	0.974469	0.645154	4.131328	-1.767331	-7.226698	6.250874	0.109098	26.295524	4.711963	0.000000	5.975252	0.719352	-6.423448	9.686839	0.169067	30.069754	13.443205	0.000000	-0.489029	-0.172705	-0.422872	-0.908175	-0.229698	-0.449301	-0.803425	-0.419915	-0.449301	-0.558911	-0.419915	-0.370013	-0.454112	-0.352180	-0.343583	-0.279431	-0.267520	-0.317154	-3.493082	-1.953674	-2.351885	0.000000	0.000000	23.541773	-0.061040	6.156033	7.279313	-12.510216	108.831973	10.153656	6.603530	-3.305049	-9.350343	12.269465	-12.520241	131.188989	9.691177	5.494793	-2.001633	-7.075147
6.260000	-6.449295	-9.620934	89.659076	0.208578	0.973633	0.646573	4.767011	-1.772403	-7.562142	6.856382	0.119666	26.607756	5.013433	0.000000	6.494228	0.665333	-6.280590	10.055288	0.175498	30.248630	13.127848	0.000000	-0.509764	-0.136218	-0.402194	-0.946683	-0.181170	-0.427331	-0.837491	-0.331200	-0.427331	-0.582609	-0.331200	-0.351920	-0.473367	-0.277775	-0.326782	-0.291279	-0.211001	-0.301645	-3.641193	-1.540923	-2.236881	0.000000	0.000000	23.751861	-0.485441	6.587733	7.474597	-12.567134	110.262187	10.003989	6.060679	-3.830812	-10.138089	12.899559	-12.146559	131.643914	9.825034	5.560020	-1.773075	-6.506268
6.280000	-6.363323	-9.871230	89.597029	0.207651	0.972888	0.647939	5.362793	-1.786319	-7.803106	7.418917	0.129485	26.867935	5.265285	0.000000	6.959494	0.628276	-6.156154	10.379321	0.181153	30.397878	12.771719	0.000000	-0.531413	-0.101794	-0.373786	-0.986886	-0.135386	-0.397147	-0.873058	-0.247503	-0.397147	-0.607351	-0.247503	-0.327063	-0.493470	-0.207579	-0.303701	-0.303649	-0.157679	-0.280339	-3.795826	-1.151517	-2.078884	0.000000	0.000000	23.889498	-1.025763	6.938191	7.697894	-12.612565	111.783547	9.832005	5.438199	-4.332193	-10.810317	13.494543	-11.755070	132.267681	9.853938	5.565953	-1.437750	-5.897723
6.300000	-6.302495	-10.095324	89.468968	0.206842	0.972258	0.649241	5.921209	-1.817575	-8.002662	7.936880	0.138525	27.091135	5.561559	0.000000	7.370353	0.611234	-6.106337	10.654492	0.185956	30.512009	12.428243	0.000000	-0.553038	-0.071126	-0.336290	-1.027046	-0.094598	-0.357308	-0.908586	-0.172937	-0.357308	-0.632067	-0.172937	-0.294254	-0.513551	-0.145041	-0.273235	-0.316006	-0.110175	-0.252217	-3.950293	-0.804596	-1.870343	0.000000	0.000000	23.937243	-1.667432	7.172809	7.941429	-12.654278	113.269576	9.653695	4.861957	-4.805861	-11.342957	14.043109	-11.373328	132.869531	9.814566	5.543264	-1.070358	-5.318929
6.320000	-6.263177	-10.297005	89.307413	0.206142	0.971773	0.650479	6.437792	-1.856701	-8.134141	8.399010	0.146590	27.255986	5.814001	0.000000	7.753344	0.606825	-6.132520	10.925614	0.190688	30.596546	12.120804	0.000000	-0.575406	-0.044809	-0.294468	-1.068586	-0.059596	-0.312872	-0.945334	-0.108949	-0.312872	-0.657631	-0.108949	-0.257659	-0.534322	-0.091375	-0.239255	-0.328787	-0.069409	-0.220851	-4.110065	-0.506888	-1.637742	0.000000	0.000000	23.912894	-2.369018	7.246545	8.195149	-12.679461	114.665034	9.448573	4.377019	-5.264665	-11.751000	14.523820	-11.000829	133.508690	9.649968	5.464067	-0.690556	-4.820690
6.340000	-6.260036	-10.482812	89.116076	0.205562	0.971435	0.651598	6.908495	-1.929007	-8.280720	8.796114	0.153521	27.388248	6.154598	0.000000	8.088294	0.637584	-6.175599	11.134366	0.194331	30.622541	11.817216	0.000000	-0.596644	-0.025108	-0.250187	-1.108027	-0.033394	-0.265824	-0.980226	-0.061048	-0.265824	-0.681904	-0.061048	-0.218914	-0.554043	-0.051201	-0.203277	-0.340922	-0.038893	-0.187640	-4.261767	-0.284029	-1.391466	0.000000	0.000000	23.793586	-3.076274	7.155902	8.447549	-12.702863	115.882974	9.247311	4.031518	-5.641373	-12.041794	14.919321	-10.670594	134.011887	9.403176	5.358426	-0.307344	-4.496572
6.360000	-6.287286	-10.659019	88.923725	0.205090	0.971246	0.652611	7.335912	-2.021419	-8.395406	9.127858	0.159311	27.465968	6.467138	0.000000	8.394332	0.694844	-6.214748	11.302494	0.197266	30.599746	11.513827	0.000000	-0.617229	-0.011934	-0.207226	-1.146256	-0.015872	-0.220178	-1.014046	-0.029016	-0.220178	-0.705431	-0.029016	-0.181323	-0.573159	-0.024336	-0.168371	-0.352685	-0.018486	-0.155420	-4.408805	-0.134999	-1.152529	0.000000	0.000000	23.612350	-3.744999	6.897315	8.702433	-12.709738	117.004149	9.023523	3.736716	-5.918620	-12.236845	15.218309	-10.378408	134.457813	9.041740	5.185137	0.064634	-4.414598
6.380000	-6.344108	-10.819267	88.715518	0.204750	0.971198	0.653503	7.716189	-2.131238	-8.454645	9.402375	0.164102	27.497520	6.736308	0.000000	8.660959	0.769052	-6.325627	11.429574	0.199484	30.532949	11.301484	0.000000	-0.637767	-0.005423	-0.159581	-1.184398	-0.007212	-0.169555	-1.047788	-0.013184	-0.169555	-0.728904	-0.013184	-0.139634	-0.592231	-0.011058	-0.129660	-0.364420	-0.008400	-0.119686	-4.555509	-0.061341	-0.887544	0.000000	0.000000	23.387611	-4.351677	6.469342	8.947274	-12.709625	117.911663	8.796587	3.534085	-6.075476	-12.331274	15.423701	-10.123476	134.744259	8.590426	4.997598	0.380871	-4.569857
6.400000	-6.427183	-10.963437	88.503421	0.204502	0.971249	0.654249	8.048539	-2.257194	-8.441710	9.629057	0.168059	27.518078	6.946695	0.000000	8.895299	0.858812	-6.484213	11.536173	0.201344	30.447770	11.166628	0.000000	-0.656825	-0.004655	-0.108050	-1.219789	-0.006191	-0.114803	-1.079097	-0.011319	-0.114803	-0.750685	-0.011319	-0.094544	-0.609928	-0.009493	-0.087790	-0.375310	-0.007211	-0.081037	-4.691634	-0.052660	-0.600941	0.000000	0.000000	23.140185	-4.908945	5.898782	9.162505	-12.710966	118.574321	8.570386	3.449341	-6.112406	-12.359014	15.545995	-9.909482	134.919265	8.085534	4.823267	0.657656	-4.975547
6.420000	-6.536846	-11.086479	88.293254	0.204341	0.971354	0.654842	8.337418	-2.402670	-8.380362	9.836454	0.171679	27.551950	7.107368	0.000000	9.100910	0.971794	-6.643123	11.638083	0.203123	30.353220	11.005162	0.000000	-0.672705	-0.009726	-0.054098	-1.249281	-0.012936	-0.057479	-1.105187	-0.023649	-0.057479	-0.768835	-0.023649	-0.047335	-0.624674	-0.019834	-0.043954	-0.384384	-0.015066	-0.040573	-4.805066	-0.110028	-0.300874	0.000000	0.000000	22.865224	-5.379972	5.258823	9.336113	-12.710382	119.046774	8.348991	3.504074	-6.064504	-12.350329	15.607346	-9.731183	135.198246	7.544921	4.637864	0.931557	-5.528963
6.440000	-6.668764	-11.183976	88.084406	0.204258	0.971470	0.655254	8.578818	-2.570968	-8.423124	10.034638	0.175137	27.646660	7.434790	0.000000	9.266754	1.096608	-6.858034	11.725004	0.204640	30.269149	10.919728	0.000000	-0.683682	-0.019874	-0.002479	-1.269667	-0.026433	-0.002634	-1.123222	-0.048322	-0.002634	-0.781381	-0.048322	-0.002169	-0.634867	-0.040528	-0.002014	-0.390656	-0.030785	-0.001859	-4.883475	-0.224822	-0.013788	0.000000	0.000000	22.586745	-5.707866	4.680992	9.492679	-12.666406	119.910925	8.057210	3.277321	-5.890457	-12.318798	15.579413	-9.602459	135.514680	7.011833	4.319722	1.165002	-6.154969
6.460000	-6.818230	-11.234375	87.884263	0.204259	0.971576	0.655460	8.748996	-2.752116	-8.452046	10.226807	0.178491	27.781053	7.739838	0.000000	9.366643	1.227917	-7.149768	11.791724	0.205804	30.217582	10.954241	0.000000	-0.690675	-0.034590	0.046962	-1.282652	-0.046004	0.049897	-1.134709	-0.084101	0.049897	-0.789372	-0.084101	0.041091	-0.641360	-0.070535	0.038156	-0.394651	-0.053579	0.035221	-4.933419	-0.391286	0.261186	0.000000	0.000000	22.291038	-5.911822	4.219209	9.592752	-12.607008	120.668656	7.781934	3.089252	-5.667762	-12.240382	15.497628	-9.564191	135.684462	6.621233	4.037382	1.332546	-6.751822
6.480000	-6.963988	-11.240111	87.714886	0.204304	0.971644	0.655467	8.846275	-2.925338	-8.467168	10.405870	0.181617	27.944638	7.993456	0.000000	9.421225	1.346188	-7.502284	11.878715	0.207323	30.221660	11.084434	0.000000	-0.693073	-0.051731	0.085732	-1.287105	-0.068802	0.091091	-1.138649	-0.125778	0.091091	-0.792113	-0.125778	0.075016	-0.643587	-0.105490	0.069657	-0.396022	-0.080131	0.064299	-4.950548	-0.585189	0.476817	0.000000	0.000000	21.984199	-5.916664	3.932659	9.646660	-12.536400	121.397227	7.552901	2.957542	-5.524908	-12.174965	15.344356	-9.612649	135.636751	6.382921	3.803293	1.391192	-7.176956
6.500000	-7.124712	-11.208149	87.542177	0.204461	0.971641	0.655299	8.906544	-3.116519	-8.537208	10.621553	0.185381	28.168246	8.318165	0.000000	9.417354	1.466347	-7.951508	11.946714	0.208509	30.237669	11.331667	0.000000	-0.691020	-0.073337	0.121358	-1.283294	-0.097539	0.128943	-1.135277	-0.178312	0.128943	-0.789767	-0.178312	0.106188	-0.641682	-0.149549	0.098603	-0.394849	-0.113599	0.091018	-4.935889	-0.829606	0.674955	0.000000	0.000000	21.700785	-5.796123	3.838228	9.646303	-12.443917	122.041298	7.361439	2.869973	-5.394669	-12.107853	15.166790	-9.778544	135.490066	6.363863	3.604270	1.388462	-7.449176
6.520000	-7.273128	-11.145585	87.416307	0.204686	0.971554	0.654968	8.919695	-3.291655	-8.647003	10.841419	0.189218	28.438310	8.633393	0.000000	9.385079	1.564226	-8.417647	12.048190	0.210281	30.292971	11.649903	0.000000	-0.685701	-0.096680	0.141256	-1.273416	-0.128584	0.150084	-1.126538	-0.235067	0.150084	-0.783688	-0.235067	0.123599	-0.636742	-0.197149	0.114770	-0.391810	-0.149757	0.105942	-4.897894	-1.093660	0.785621	0.000000	0.000000	21.455223	-5.491981	3.964404	9.604340	-12.329342	122.634181	7.221245	2.849445	-5.392280	-12.118371	14.950795	-10.049852	135.195413	6.540509	3.444093	1.291686	-7.479323
